<svg xmlns="http://www.w3.org/2000/svg" viewBox="0 0 294.71 283.73"><defs><style>.cls-1{fill:#fff;}</style></defs><g id="Layer_2" data-name="Layer 2"><g id="Layer_1-2" data-name="Layer 1"><g id="Layer_2-2" data-name="Layer 2"><g id="Layer_1-2-2" data-name="Layer 1-2"><path class="cls-1" d="M131.28,278.25h0c15.72,9.75,35.82,4,44.9-12.91L290.3,53c9.08-16.89,3.69-38.49-12-48.24h0C262.58-5,242.48.74,233.4,17.65L119.25,230C110.17,246.9,115.56,268.5,131.28,278.25Z"/><polygon class="cls-1" points="179.42 243.5 156.09 277.94 137.82 279.46 129.23 211.56 136.99 196.96 160.55 153.69 179.42 243.5"/><path class="cls-1" d="M163.45,279h0c-15.72,9.75-35.81,4-44.9-12.91L4.41,53.69c-9.08-16.9-3.69-38.5,12-48.25h0c15.73-9.75,35.82-4,44.91,12.91L175.47,230.73C184.56,247.63,179.18,269.23,163.45,279Z"/><circle class="cls-1" cx="147.29" cy="42.08" r="41.65"/></g></g></g></g></svg>